<svg width="11" height="12" viewBox="0 0 11 12" fill="none" xmlns="http://www.w3.org/2000/svg">
<path d="M10.241 5.39908L7.98273 7.87816L8.51603 11.3796C8.53923 11.5327 8.4834 11.6874 8.37174 11.7789C8.30866 11.8307 8.23361 11.8568 8.15857 11.8568C8.10092 11.8568 8.04292 11.8413 7.98998 11.8099L5.19771 10.1568L2.40579 11.8095C2.28398 11.8822 2.1357 11.8703 2.02404 11.7785C1.91238 11.687 1.85655 11.5323 1.87975 11.3792L2.41305 7.87775L0.154426 5.39908C0.0558153 5.29048 0.0199239 5.12799 0.0627035 4.9806C0.105483 4.83321 0.218958 4.72501 0.355635 4.70256L3.47674 4.19221L4.87251 1.00681C4.99469 0.727955 5.40073 0.727955 5.52291 1.00681L6.91868 4.19221L10.0398 4.70256C10.1765 4.72501 10.2899 4.8328 10.3327 4.9806C10.3755 5.12839 10.3396 5.29007 10.241 5.39908V5.39908Z" fill="#FFB800"/>
</svg>
