<svg aria-hidden="true" style="position: absolute; width: 0; height: 0; overflow: hidden;" version="1.1" xmlns="http://www.w3.org/2000/svg" xmlns:xlink="http://www.w3.org/1999/xlink">
<defs>
<symbol id="star" viewBox="0 0 29 32">
<path fill="#ffb800" style="fill: var(--color1, #ffb800)" d="M27.309 14.398l-6.022 6.611 1.422 9.337c0.062 0.408-0.087 0.821-0.385 1.065-0.168 0.138-0.368 0.208-0.568 0.208-0.154 0-0.308-0.041-0.45-0.125l-7.446-4.408-7.445 4.407c-0.325 0.194-0.72 0.162-1.018-0.083s-0.447-0.657-0.385-1.065l1.422-9.337-6.023-6.61c-0.263-0.29-0.359-0.723-0.245-1.116s0.417-0.682 0.781-0.741l8.323-1.361 3.722-8.494c0.326-0.744 1.409-0.744 1.734 0l3.722 8.494 8.323 1.361c0.365 0.060 0.667 0.347 0.781 0.741s0.018 0.825-0.245 1.116v0z"></path>
</symbol>
</defs>
</svg>
